<?xml version='1.0' encoding='UTF-8'?>
<!DOCTYPE svg PUBLIC "-//W3C//DTD SVG 1.0//EN" "http://www.w3.org/TR/2001/REC-SVG-20010904/DTD/svg10.dtd">
<svg viewBox="0 0 832 360" xmlns="http://www.w3.org/2000/svg" xmlns:inkspace="http://www.inkscape.org/namespaces/inkscape" xmlns:xlink="http://www.w3.org/1999/xlink">
  <defs id="defs_block">
    <filter height="1.504" id="filter_blur" inkspace:collect="always" width="1.1575" x="-0.07875" y="-0.252">
      <feGaussianBlur id="feGaussianBlur3780" inkspace:collect="always" stdDeviation="4.2" />
    </filter>
  </defs>
  <title>blockdiag</title>
  <desc>blockdiag {

  // States
  N1 [label = Not-exist, shape = beginpoint];
  N2 [label = Not-exist, shape = beginpoint];
  Discovered [shape = ellipse];
  Pre-provisioned [shape = ellipse];
  Activating [shape = ellipse];
  Active [shape = ellipse, color = "#80ff80"];
  Failed [shape = ellipse, color = "#ff8080"];
  TBD [shape = ellipse, stacked];

  // Transients
  N1 -&gt; Pre-provisioned;
  N2 -&gt; Discovered;
  Pre-provisioned -&gt; Activating;
  Discovered -&gt; Activating;
  Activating -&gt; Active;
  Activating -&gt; Failed [folded];
  Active -&gt; Failed [folded];

}
</desc>
  <ellipse cx="131" cy="66" fill="rgb(0,0,0)" rx="8" ry="8" stroke="rgb(0,0,0)" style="filter:url(#filter_blur);opacity:0.7;fill-opacity:1" />
  <ellipse cx="131" cy="146" fill="rgb(0,0,0)" rx="8" ry="8" stroke="rgb(0,0,0)" style="filter:url(#filter_blur);opacity:0.7;fill-opacity:1" />
  <ellipse cx="323" cy="146" fill="rgb(0,0,0)" rx="64" ry="20" stroke="rgb(0,0,0)" style="filter:url(#filter_blur);opacity:0.7;fill-opacity:1" />
  <ellipse cx="323" cy="66" fill="rgb(0,0,0)" rx="64" ry="20" stroke="rgb(0,0,0)" style="filter:url(#filter_blur);opacity:0.7;fill-opacity:1" />
  <ellipse cx="515" cy="66" fill="rgb(0,0,0)" rx="64" ry="20" stroke="rgb(0,0,0)" style="filter:url(#filter_blur);opacity:0.7;fill-opacity:1" />
  <ellipse cx="707" cy="66" fill="rgb(0,0,0)" rx="64" ry="20" stroke="rgb(0,0,0)" style="filter:url(#filter_blur);opacity:0.7;fill-opacity:1" />
  <ellipse cx="131" cy="226" fill="rgb(0,0,0)" rx="64" ry="20" stroke="rgb(0,0,0)" style="filter:url(#filter_blur);opacity:0.7;fill-opacity:1" />
  <ellipse cx="139" cy="314" fill="rgb(0,0,0)" rx="64" ry="20" stroke="rgb(0,0,0)" style="filter:url(#filter_blur);opacity:0.7;fill-opacity:1" />
  <ellipse cx="135" cy="310" fill="rgb(0,0,0)" rx="64" ry="20" stroke="rgb(0,0,0)" style="filter:url(#filter_blur);opacity:0.7;fill-opacity:1" />
  <ellipse cx="131" cy="306" fill="rgb(0,0,0)" rx="64" ry="20" stroke="rgb(0,0,0)" style="filter:url(#filter_blur);opacity:0.7;fill-opacity:1" />
  <ellipse cx="128" cy="60" fill="rgb(0,0,0)" rx="8" ry="8" stroke="rgb(0,0,0)" />
  <text fill="rgb(0,0,0)" font-family="sans-serif" font-size="11" font-style="normal" font-weight="normal" text-anchor="middle" textLength="47" x="159" y="55">Not-exist</text>
  <ellipse cx="128" cy="140" fill="rgb(0,0,0)" rx="8" ry="8" stroke="rgb(0,0,0)" />
  <text fill="rgb(0,0,0)" font-family="sans-serif" font-size="11" font-style="normal" font-weight="normal" text-anchor="middle" textLength="47" x="159" y="135">Not-exist</text>
  <ellipse cx="320" cy="140" fill="rgb(255,255,255)" rx="64" ry="20" stroke="rgb(0,0,0)" />
  <text fill="rgb(0,0,0)" font-family="sans-serif" font-size="11" font-style="normal" font-weight="normal" text-anchor="middle" textLength="55" x="320" y="145">Discovered</text>
  <ellipse cx="320" cy="60" fill="rgb(255,255,255)" rx="64" ry="20" stroke="rgb(0,0,0)" />
  <text fill="rgb(0,0,0)" font-family="sans-serif" font-size="11" font-style="normal" font-weight="normal" text-anchor="middle" textLength="78" x="320" y="66">Pre-provisioned</text>
  <ellipse cx="512" cy="60" fill="rgb(255,255,255)" rx="64" ry="20" stroke="rgb(0,0,0)" />
  <text fill="rgb(0,0,0)" font-family="sans-serif" font-size="11" font-style="normal" font-weight="normal" text-anchor="middle" textLength="50" x="512" y="66">Activating</text>
  <ellipse cx="704" cy="60" fill="rgb(128,255,128)" rx="64" ry="20" stroke="rgb(0,0,0)" />
  <text fill="rgb(0,0,0)" font-family="sans-serif" font-size="11" font-style="normal" font-weight="normal" text-anchor="middle" textLength="32" x="704" y="65">Active</text>
  <ellipse cx="128" cy="220" fill="rgb(255,128,128)" rx="64" ry="20" stroke="rgb(0,0,0)" />
  <text fill="rgb(0,0,0)" font-family="sans-serif" font-size="11" font-style="normal" font-weight="normal" text-anchor="middle" textLength="28" x="128" y="225">Failed</text>
  <ellipse cx="136" cy="308" fill="rgb(255,255,255)" rx="64" ry="20" stroke="rgb(0,0,0)" />
  <ellipse cx="132" cy="304" fill="rgb(255,255,255)" rx="64" ry="20" stroke="rgb(0,0,0)" />
  <ellipse cx="128" cy="300" fill="rgb(255,255,255)" rx="64" ry="20" stroke="rgb(0,0,0)" />
  <text fill="rgb(0,0,0)" font-family="sans-serif" font-size="11" font-style="normal" font-weight="normal" text-anchor="middle" textLength="22" x="128" y="305">TBD</text>
  <path d="M 136 60 L 248 60" fill="none" stroke="rgb(0,0,0)" />
  <polygon fill="rgb(0,0,0)" points="255,60 248,56 248,64 255,60" stroke="rgb(0,0,0)" />
  <path d="M 136 140 L 248 140" fill="none" stroke="rgb(0,0,0)" />
  <polygon fill="rgb(0,0,0)" points="255,140 248,136 248,144 255,140" stroke="rgb(0,0,0)" />
  <path d="M 384 140 L 432 140" fill="none" stroke="rgb(0,0,0)" />
  <path d="M 432 140 L 432 60" fill="none" stroke="rgb(0,0,0)" />
  <path d="M 432 60 L 440 60" fill="none" stroke="rgb(0,0,0)" />
  <polygon fill="rgb(0,0,0)" points="447,60 440,56 440,64 447,60" stroke="rgb(0,0,0)" />
  <path d="M 384 60 L 440 60" fill="none" stroke="rgb(0,0,0)" />
  <polygon fill="rgb(0,0,0)" points="447,60 440,56 440,64 447,60" stroke="rgb(0,0,0)" />
  <path d="M 576 60 L 632 60" fill="none" stroke="rgb(0,0,0)" />
  <polygon fill="rgb(0,0,0)" points="639,60 632,56 632,64 639,60" stroke="rgb(0,0,0)" />
  <path d="M 512 80 L 512 180" fill="none" stroke="rgb(0,0,0)" />
  <path d="M 128 180 L 512 180" fill="none" stroke="rgb(0,0,0)" />
  <path d="M 128 180 L 128 192" fill="none" stroke="rgb(0,0,0)" />
  <polygon fill="rgb(0,0,0)" points="128,199 124,192 132,192 128,199" stroke="rgb(0,0,0)" />
  <path d="M 704 80 L 704 180" fill="none" stroke="rgb(0,0,0)" />
  <path d="M 128 180 L 704 180" fill="none" stroke="rgb(0,0,0)" />
  <path d="M 128 180 L 128 192" fill="none" stroke="rgb(0,0,0)" />
  <polygon fill="rgb(0,0,0)" points="128,199 124,192 132,192 128,199" stroke="rgb(0,0,0)" />
</svg>
